<svg width="96" height="96" xmlns="http://www.w3.org/2000/svg" xml:space="preserve" overflow="hidden"><defs><clipPath id="clip0"><rect x="73" y="574" width="96" height="96"/></clipPath></defs><g clip-path="url(#clip0)" transform="translate(-73 -574)"><path d="M101.9 611 152 611 152 606C152 603.8 150.2 602 148 602L118 602 107 594.7C106.3 594.3 105.6 594 104.8 594L86 594C83.8 594 82 595.8 82 598L82 647C82 647.2 94.9 615.7 94.9 615.7 96.1 612.9 98.8 611 101.9 611Z" fill="#A6A6A6"/><path d="M160 619C160 616.9 158.5 615.2 156.4 615L101.9 615C100.4 615 99.1 615.9 98.5 617.2L85 650 146 650 159.6 620.8C159.9 620.2 160 619.6 160 619L160 619Z" fill="#A6A6A6"/></g></svg>